<svg width="24" height="24" viewBox="0 0 24 24" fill="none" xmlns="http://www.w3.org/2000/svg">
<path d="M4.93011 11.9994C4.93011 11.7182 5.04199 11.4486 5.24112 11.2498C5.44025 11.051 5.71034 10.9393 5.99195 10.9393H10.9373V6.00239C10.9373 5.72125 11.0492 5.45162 11.2483 5.25283C11.4474 5.05403 11.7175 4.94235 11.9991 4.94235C12.2807 4.94235 12.5508 5.05403 12.7499 5.25283C12.9491 5.45162 13.061 5.72125 13.061 6.00239V10.9393H18.0063C18.2879 10.9393 18.558 11.051 18.7571 11.2498C18.9562 11.4486 19.0681 11.7182 19.0681 11.9994C19.0681 12.2805 18.9562 12.5501 18.7571 12.7489C18.558 12.9477 18.2879 13.0594 18.0063 13.0594H13.061V17.9963C13.061 18.2775 12.9491 18.5471 12.7499 18.7459C12.5508 18.9447 12.2807 19.0564 11.9991 19.0564C11.7175 19.0564 11.4474 18.9447 11.2483 18.7459C11.0492 18.5471 10.9373 18.2775 10.9373 17.9963V13.0594H5.99195C5.71034 13.0594 5.44025 12.9477 5.24112 12.7489C5.04199 12.5501 4.93011 12.2805 4.93011 11.9994Z" fill="white"/>
<path fill-rule="evenodd" clip-rule="evenodd" d="M5.36901 0.365773C9.77559 -0.121924 14.2227 -0.121924 18.6292 0.365773C21.2159 0.654103 23.3041 2.68795 23.6071 5.28433C24.131 9.74637 24.131 14.2536 23.6071 18.7157C23.3027 21.312 21.2145 23.3445 18.6292 23.6342C14.2227 24.1219 9.77559 24.1219 5.36901 23.6342C2.78238 23.3445 0.694097 21.312 0.39112 18.7157C-0.130373 14.2537 -0.130373 9.74631 0.39112 5.28433C0.694097 2.68795 2.78379 0.654103 5.36901 0.365773ZM18.3942 2.47171C14.1438 2.00137 9.85441 2.00137 5.60403 2.47171C4.8172 2.55885 4.08277 2.90826 3.5194 3.4635C2.95603 4.01873 2.59661 4.74736 2.49922 5.53167C1.99567 9.82971 1.99567 14.1717 2.49922 18.4697C2.59691 19.2538 2.95646 19.9821 3.5198 20.5371C4.08315 21.092 4.81741 21.4412 5.60403 21.5283C9.81882 21.9975 14.1794 21.9975 18.3942 21.5283C19.1806 21.4409 19.9145 21.0916 20.4776 20.5366C21.0406 19.9817 21.4 19.2536 21.4976 18.4697C22.0012 14.1717 22.0012 9.82971 21.4976 5.53167C21.3997 4.74809 21.0402 4.02027 20.4772 3.46563C19.9141 2.91098 19.1804 2.56185 18.3942 2.47453" fill="white"/>
</svg>
