<svg width="24" height="26" viewBox="0 0 24 26" fill="none" xmlns="http://www.w3.org/2000/svg">
<path d="M22.7997 17.9076V11.9173C22.7997 6.76946 22.7997 4.19793 21.2181 2.59836C19.6366 1 17.0902 1 11.9999 1C6.90966 1 4.36332 1 2.78176 2.59836C1.2002 4.19673 1.2002 6.77186 1.2002 11.9173V17.9088C1.2002 21.6239 1.2002 23.4827 2.08097 24.2939C2.50096 24.6814 3.03135 24.925 3.59654 24.9898C4.78091 25.1254 6.16448 23.9015 8.93041 21.4547C10.1544 20.3735 10.7652 19.8324 11.472 19.6908C11.8199 19.6188 12.1799 19.6188 12.5279 19.6908C13.2359 19.8324 13.8467 20.3735 15.0695 21.4547C17.8354 23.9015 19.219 25.1254 20.4033 24.9886C20.9673 24.925 21.4989 24.6814 21.9189 24.2939C22.7997 23.4827 22.7997 21.6239 22.7997 17.9076Z" stroke="white" stroke-width="1.5"/>
<path d="M15.5999 5.7998H8.40002" stroke="white" stroke-width="1.5" stroke-linecap="round"/>
</svg>
