<svg width="26" height="26" viewBox="0 0 26 26" fill="none" xmlns="http://www.w3.org/2000/svg">
<path d="M13 25C10.6266 25 8.30655 24.2962 6.33316 22.9776C4.35977 21.6591 2.8217 19.7849 1.91345 17.5922C1.0052 15.3995 0.767561 12.9867 1.23058 10.6589C1.69361 8.33115 2.8365 6.19295 4.51473 4.51472C6.19296 2.83649 8.33115 1.6936 10.6589 1.23058C12.9867 0.767559 15.3995 1.0052 17.5922 1.91345C19.7849 2.8217 21.6591 4.35977 22.9776 6.33316C24.2962 8.30655 25 10.6266 25 13C25 14.984 24.52 16.8533 23.6667 18.5027L25 25L18.5027 23.6667C16.8547 24.5187 14.9827 25 13 25Z" stroke="white" stroke-width="1.5" stroke-linecap="round" stroke-linejoin="round"/>
</svg>
