<svg width="24" height="24" viewBox="0 0 24 24" fill="none" xmlns="http://www.w3.org/2000/svg">
<path d="M7.65 17.1L13.71 15.36C14.11 15.24 14.4552 15.0348 14.7456 14.7444C15.036 14.454 15.2408 14.1092 15.36 13.71L17.1 7.65C17.16 7.43 17.1052 7.2348 16.9356 7.0644C16.766 6.894 16.5708 6.8392 16.35 6.9L10.29 8.64C9.88999 8.76 9.5452 8.9652 9.2556 9.2556C8.966 9.546 8.7608 9.8908 8.64 10.29L6.9 16.35C6.84 16.57 6.8952 16.7652 7.0656 16.9356C7.236 17.106 7.4308 17.1608 7.65 17.1ZM12 13.8C11.5 13.8 11.0752 13.6252 10.7256 13.2756C10.376 12.926 10.2008 12.5008 10.2 12C10.1992 11.4992 10.3744 11.0744 10.7256 10.7256C11.0768 10.3768 11.5016 10.2016 12 10.2C12.4984 10.1984 12.9236 10.3736 13.2756 10.7256C13.6276 11.0776 13.8024 11.5024 13.8 12C13.7976 12.4976 13.6228 12.9228 13.2756 13.2756C12.9284 13.6284 12.5032 13.8032 12 13.8ZM12 24C10.34 24 8.78 23.6848 7.32 23.0544C5.86 22.424 4.59 21.5692 3.51 20.49C2.43 19.4108 1.5752 18.1408 0.945601 16.68C0.316001 15.2192 0.000801518 13.6592 1.51899e-06 12C-0.00079848 10.3408 0.314401 8.7808 0.945601 7.32C1.5768 5.8592 2.4316 4.5892 3.51 3.51C4.5884 2.4308 5.8584 1.576 7.32 0.9456C8.7816 0.3152 10.3416 0 12 0C13.6584 0 15.2184 0.3152 16.68 0.9456C18.1416 1.576 19.4116 2.4308 20.49 3.51C21.5684 4.5892 22.4236 5.8592 23.0556 7.32C23.6876 8.7808 24.0024 10.3408 24 12C23.9976 13.6592 23.6824 15.2192 23.0544 16.68C22.4264 18.1408 21.5716 19.4108 20.49 20.49C19.4084 21.5692 18.1384 22.4244 16.68 23.0556C15.2216 23.6868 13.6616 24.0016 12 24ZM12 21.6C14.66 21.6 16.9252 20.6652 18.7956 18.7956C20.666 16.926 21.6008 14.6608 21.6 12C21.5992 9.3392 20.6644 7.074 18.7956 5.2044C16.9268 3.3348 14.6616 2.4 12 2.4C9.3384 2.4 7.0732 3.3352 5.2044 5.2056C3.3356 7.076 2.4008 9.3408 2.4 12C2.3992 14.6592 3.3344 16.9244 5.2056 18.7956C7.0768 20.6668 9.34159 21.6016 12 21.6Z" fill="white"/>
</svg>
