<svg width="24" height="24" viewBox="0 0 24 24" fill="none" xmlns="http://www.w3.org/2000/svg">
<path d="M12 0.5C12.5064 0.5 12.9519 0.618302 13.3477 0.851562L13.5146 0.958984L13.5176 0.960938L22.5176 7.13281L22.5215 7.13574C22.7924 7.3174 23.0096 7.53882 23.1758 7.80371L23.2432 7.91992C23.3947 8.19644 23.4782 8.4829 23.4961 8.7832L23.5 8.91309V21.2568C23.5 21.7865 23.3248 22.2468 22.9521 22.6543L22.7803 22.8262C22.3496 23.2198 21.8486 23.4406 21.2588 23.4893L21.001 23.5H16.5C16.2267 23.5 16.0151 23.429 15.8418 23.2969L15.7705 23.2363H15.7695C15.6083 23.0882 15.5231 22.9223 15.5039 22.7178L15.5 22.627V15.7715C15.5 15.3079 15.3444 14.8978 15.043 14.5635L14.9043 14.4258C14.5645 14.1162 14.1556 13.9464 13.6992 13.9082L13.501 13.9004H10.5C10.0296 13.9004 9.60329 14.0308 9.24414 14.3018L9.09375 14.4268C8.75329 14.7392 8.55495 15.129 8.50977 15.5752L8.5 15.7705V22.6289C8.49993 22.8454 8.43501 23.0195 8.29492 23.1729L8.23047 23.2373C8.06674 23.387 7.86904 23.4765 7.61426 23.4961L7.50098 23.5H3C2.38287 23.5 1.8587 23.3273 1.4082 22.9834L1.21973 22.8262C0.730055 22.3785 0.500894 21.8635 0.5 21.2568V8.91406C0.500031 8.6093 0.565 8.31963 0.697266 8.04004L0.757812 7.91992C0.909962 7.64244 1.11139 7.40808 1.36621 7.21484L1.47852 7.13477L1.48242 7.13281L10.4824 0.960938L10.4854 0.958984C10.9217 0.654994 11.4212 0.5 12 0.5Z" fill="white" stroke="white"/>
</svg>
